<?xml version="1.0" encoding="UTF-8"?>
<svg version="1.1" viewBox="0 0 2048 1131" width="612" height="338" xmlns="http://www.w3.org/2000/svg">
<path transform="translate(0)" d="m0 0h2048v1131h-2048z" fill="#0B0C10"/>
<path transform="translate(931,90)" d="m0 0h44l25 2 33 5 26 6 29 9 29 12 25 12 21 12 25 17 16 12 13 11 10 9 9 8v2l4 2 9 10 11 12 11 14 10 13 12 18 9 15 14 27 11 25 10 28 7 25 5 22 4 25 2 21v51l-4 33-7 41-7 25-9 26-12 26-12 23-14 23-10 14-13 17-9 11-12 14-11 12-12 13-13 13-7 8-4 2-1 3-8 7-83 83-8 7-12 12-8 7-15 14-13 12-9 9-7 8-37 37-7 8-32 32-4 2h-8l-10-9-7-8-8-6-15-16-53-53-7-8-45-45-7-8-54-54-7-8-47-47-7-8-14-14-7-8-14-15-9-11-10-12-13-18-12-19-14-27-11-27-9-27-8-32-6-36-3-32v-33l3-35 6-36 5-20 8-26 9-24 11-24 13-24 12-19 14-20 14-17 12-14 21-21 8-7 13-11 17-13 21-14 26-15 32-15 27-10 26-8 32-7 35-5z" fill="#202A33"/>
<path transform="translate(942,224)" d="m0 0h24l27 3 27 6 24 8 18 8 23 13 15 10 12 9 11 9 10 9 17 17 13 17 8 11 12 20 8 17 8 21 6 20 5 24 3 27v33l-2 19-2 5-5 4-5 1-28 1h-67l-114-1-7-3-4-4v-79l4-4 3-1h130l-9-24-11-21-8-12-9-12-8-8v-2l-4-2-11-10-15-10-21-11-19-7-19-5-19-4h-31l-15 3-24 7-24 10-15 9-13 10-12 11-11 11-12 17-10 18-9 23-6 21-3 20v21l2 19 5 21 6 16 9 19 11 16 9 14 2 5v101l-2 7-3 1-7-4-17-12-13-11-10-9-18-18-9-11-10-13-10-15-12-23-8-19-9-28-4-18-3-22-1-13v-29l4-28 6-26 10-29 9-21 11-18 14-20 9-12 10-11 7-8 9-9 10-8 16-12 18-11 21-10 26-10 22-6 26-5z" fill="#F69F28"/>
<path transform="translate(923,336)" d="m0 0 7 1 3 4 2 8v88l3 6h17l5 5 1 4v73l-2 6-5 4h-13l-5 1v118l2 3 3 1 11 1h15l19-2 20-4 18-6 19-9 14-9 14-11 7-6 7-8 13-16 7-9 5-4 6 2 18 10 14 9 28 17 10 7 1 5-6 10-14 17-9 10-14 15-13 12-11 9-18 13-19 11-16 8-15 6-15 5-20 5-26 4-9 1h-39l-24-3-24-5-30-9-12-6-5-5-1-5-1-177-2-4-4-2-24-1-8-4-4-10-4-19-1-9v-14l1-14 4-11 7-6 5-2 23-2 6-2 1-2v-39l3-14 5-10 9-10 18-11 30-15z" fill="#FCFBFA"/>
<path transform="translate(926,1037)" d="m0 0 6 4 12 13 3 2h8l6-4 10-10 1 2h2l1-3 3-2 21 3 28 2 36 3 27 4 16 4 5 3v7l-3 5-9 4-17 4-30 4-35 3-20 1h-85l-47-4-35-5-23-5-7-3-1-4 2-11 16-3 44-5 50-5 15-2z" fill="#CFD0D2"/>
<path transform="translate(863,337)" d="m0 0 2 1-15 10-7 5-3-1 2-3 5-2 1-2 8-4 4-3z" fill="#D9C4A6"/>
<path transform="translate(833,356)" d="m0 0 1 2-3 4-5 3h-2v-2z" fill="#CFD1D3"/>
</svg>